<svg width="168" height="32" viewBox="0 0 168 32" fill="none" xmlns="http://www.w3.org/2000/svg">
<g filter="url(#filter0_d_32_362)">
<mask id="mask0_32_362" style="mask-type:alpha" maskUnits="userSpaceOnUse" x="4" y="0" width="160" height="24">
<path fill-rule="evenodd" clip-rule="evenodd" d="M45.6095 0C38.9396 0 33.5122 5.38266 33.5122 12C33.5122 18.6173 38.9385 24 45.6095 24C52.2804 24 57.7067 18.6173 57.7067 12C57.7067 5.38266 52.2796 0 45.6095 0ZM45.6095 19.8839C41.2256 19.8839 37.6605 16.3467 37.6605 11.9989C37.6605 7.6511 41.2264 4.11385 45.6095 4.11385C49.9925 4.11385 53.5587 7.65137 53.5587 11.9983C53.5587 16.3453 49.9928 19.8834 45.6095 19.8834V19.8839ZM23.9641 21.8111L23.7871 5.542L18.2606 18.6559C17.8322 19.6409 17.2304 20.1204 16.4208 20.1204C15.6328 20.1198 14.9625 19.5875 14.5815 18.6581L9.0548 5.54228L8.8775 21.8119C8.86751 23.0381 8.06205 23.771 6.72302 23.771C6.066 23.771 5.52689 23.5745 5.16453 23.2026C4.8252 22.8545 4.64901 22.3538 4.66788 21.7929C4.67214 21.6737 4.97989 11.6735 5.14711 6.2398L5.14714 6.23881L5.25248 2.81668C5.31824 1.25751 7.0668 0.0464995 8.52651 0.0464995C10.6951 0.0464995 11.601 1.79916 11.8902 2.55384L16.4233 14.1327L20.9481 2.56155C21.7045 0.86916 22.8057 0.046224 24.3151 0.046224C25.774 0.046224 27.5225 1.25641 27.5891 2.81421L27.643 4.56577C27.7869 9.24048 28.169 21.6595 28.1737 21.7926C28.1926 22.3538 28.0164 22.8542 27.6771 23.2024C27.3147 23.5742 26.7759 23.7707 26.1186 23.7707C24.7796 23.7702 23.9741 23.0378 23.9641 21.8111ZM63.7505 2.33827C63.7505 1.0312 64.5884 0.250651 65.9915 0.250651L72.5837 0.252578C76.0511 0.252578 78.5677 2.57717 78.5677 5.78001C78.5677 7.86102 77.1099 10.5996 74.7515 11.0919L74.7759 11.134C78.0757 11.3853 80.577 13.9414 80.5937 16.8313C80.6048 18.7714 79.9963 20.4098 78.834 21.5696C77.5244 22.8759 75.5403 23.5664 73.0987 23.5664H66.0257C64.6661 23.5664 63.7505 22.714 63.7505 21.4452V2.33827ZM67.9587 20.0058H72.4813L72.4816 20.0055C74.7285 20.0055 76.1801 18.6591 76.1801 16.5753C76.1801 14.5975 74.6433 13.4168 72.0693 13.4168H67.9587V20.0058ZM67.9587 9.85616H71.1079V9.85588C73.1145 9.85588 74.3608 8.6457 74.3606 6.69735C74.3606 4.97139 73.0534 3.81184 71.1079 3.81184H67.9587V9.85616ZM114.122 0.250651C112.912 0.250651 112.259 1.22084 112.259 2.1335C112.259 3.04616 112.748 4.01606 114.122 4.01606H118.336V21.5815C118.336 22.9521 119.122 23.7707 120.44 23.7707C121.758 23.7707 122.544 22.9521 122.544 21.5815V4.01606H126.759C128.133 4.01606 128.623 3.04368 128.623 2.1335C128.623 1.22331 127.97 0.250651 126.759 0.250651H114.122ZM133.777 2.236C133.777 0.865081 134.563 0.0465495 135.881 0.0465495C137.198 0.0465495 137.985 0.865081 137.985 2.236V21.5816C137.985 22.9525 137.198 23.7708 135.881 23.7708C134.563 23.7708 133.777 22.9525 133.777 21.5816V2.236ZM161.156 0.0465495C160.51 0.0465495 159.751 0.482788 159.31 1.10756L154.031 8.35394L148.757 1.11334C148.313 0.484164 147.552 0.0465495 146.907 0.0465495C145.648 0.0465495 144.768 0.876641 144.768 2.06536C144.768 2.4782 144.925 2.89875 145.22 3.27912L151.461 11.8827L145.263 20.391C145.023 20.7171 144.768 21.2717 144.768 21.8543C144.768 23.0007 145.629 23.7708 146.907 23.7708C147.632 23.7708 148.202 23.468 148.652 22.843L154.031 15.4265L159.41 22.8416C159.86 23.4669 160.431 23.7708 161.156 23.7708C162.435 23.7708 163.294 23.0001 163.294 21.8543C163.294 21.2722 163.04 20.7174 162.801 20.3921L156.602 11.8825L162.839 3.28407C163.138 2.89875 163.294 2.47875 163.294 2.06536C163.294 0.876641 162.415 0.0465495 161.156 0.0465495ZM85.5418 12C85.5418 5.38266 90.9692 0 97.6391 0C104.309 0 109.736 5.38266 109.736 12C109.736 18.6173 104.31 24 97.6391 24C90.9681 24 85.5418 18.6173 85.5418 12ZM89.6901 11.9989C89.6901 16.3467 93.2552 19.8839 97.6391 19.8839V19.8834C102.022 19.8834 105.588 16.3453 105.588 11.9983C105.588 7.65137 102.022 4.11385 97.6391 4.11385C93.256 4.11385 89.6901 7.6511 89.6901 11.9989Z" fill="#004494"/>
</mask>
<g mask="url(#mask0_32_362)">
<rect x="4.6665" y="-0.634766" width="158.63" height="25.3807" fill="#606775"/>
</g>
</g>
<defs>
<filter id="filter0_d_32_362" x="0.666504" y="0" width="166.628" height="32" filterUnits="userSpaceOnUse" color-interpolation-filters="sRGB">
<feFlood flood-opacity="0" result="BackgroundImageFix"/>
<feColorMatrix in="SourceAlpha" type="matrix" values="0 0 0 0 0 0 0 0 0 0 0 0 0 0 0 0 0 0 127 0" result="hardAlpha"/>
<feOffset dy="4"/>
<feGaussianBlur stdDeviation="2"/>
<feComposite in2="hardAlpha" operator="out"/>
<feColorMatrix type="matrix" values="0 0 0 0 0 0 0 0 0 0 0 0 0 0 0 0 0 0 0.25 0"/>
<feBlend mode="normal" in2="BackgroundImageFix" result="effect1_dropShadow_32_362"/>
<feBlend mode="normal" in="SourceGraphic" in2="effect1_dropShadow_32_362" result="shape"/>
</filter>
</defs>
</svg>
