<svg width="97" height="26" viewBox="0 0 97 26" fill="none" xmlns="http://www.w3.org/2000/svg">
<path fill-rule="evenodd" clip-rule="evenodd" d="M11.2837 24.1606H11.2837L11.2836 24.1606L11.2835 24.1607C10.731 24.2173 10.1701 24.2748 9.59586 24.3455L4.98786 11.0145V24.9127C3.54786 25.0545 2.25186 25.2436 0.859863 25.48V0H4.69986L9.93186 14.4655V0H14.0119V23.8255C13.1103 23.9734 12.2088 24.0658 11.2837 24.1606ZM24.8156 9.31104L24.8157 9.31104L24.8158 9.31104C25.7695 9.28798 26.701 9.26545 27.4039 9.26545V13.2364C25.6279 13.2364 23.5159 13.2364 21.9799 13.3309V19.24C22.7278 19.1949 23.4805 19.145 24.2366 19.0949L24.2367 19.0949L24.2368 19.0949L24.2369 19.0949H24.2369H24.2369H24.237H24.237H24.237H24.237H24.2371C25.8585 18.9875 27.4952 18.879 29.1319 18.8145V22.6436L17.9479 23.4945V0H29.1319V3.97091H21.9799V9.36C22.7906 9.36 23.8152 9.33523 24.8154 9.31104L24.8155 9.31104H24.8155H24.8156ZM39.9319 4.01818H44.1079C44.1079 4.01818 44.1079 0 44.1559 0H31.7239V4.01818H35.8999V22.36C37.1959 22.3127 38.5879 22.3127 39.9319 22.3127V4.01818ZM50.6839 9.07636H56.2039V13.0473H50.6839V22.0764H46.6999V0H57.9799V3.97091H50.6839V9.07636ZM68.7417 18.7682C67.3536 18.6879 65.9547 18.6069 64.5559 18.5782V0H60.5239V22.3127C64.2199 22.4073 67.8199 22.5964 71.4199 22.8327V18.9091C70.5336 18.8719 69.6399 18.8202 68.7417 18.7682ZM76.1902 23.2035L76.1904 23.2035C77.0553 23.255 77.9336 23.3073 78.8119 23.4V0H74.8279V23.1164C75.2769 23.1491 75.7317 23.1762 76.1902 23.2035ZM91.3399 12.1018L96.4759 0H92.0119L89.1799 6.66545L86.5399 0H82.2199L86.9239 11.96L81.7399 23.5891C82.3159 23.6647 82.8919 23.7252 83.4678 23.7857C84.3319 23.8765 85.1959 23.9673 86.0599 24.1091L89.0359 17.3491L91.9159 24.7236C92.4538 24.8064 92.9858 24.895 93.5161 24.9833C94.5 25.1471 95.4778 25.3099 96.4759 25.4327L91.3399 12.1018Z" fill="#8C98A4"/>
</svg>
